<?xml version="1.0" encoding="UTF-8"?>
<svg width="1200" height="900" version="1.1" viewBox="0 0 1200 900" xmlns="http://www.w3.org/2000/svg">
  <defs>
    <filter id="filter1" x="-.074241" y="-.093564" width="1.1485" height="1.1871" style="color-interpolation-filters:sRGB">
      <feGaussianBlur stdDeviation="20.05693"/>
    </filter>
    <filter id="filter2" x="-.12101" y="-.072209" width="1.242" height="1.1444" style="color-interpolation-filters:sRGB">
      <feGaussianBlur stdDeviation="10.115345"/>
    </filter>
  </defs>
  <rect width="1200" height="900" style="fill:#000000"/>
  <text transform="translate(-138.77 -63.423)" x="739.04297" y="88.235291" style="fill-opacity:.5;fill:#87ded5;font-family:Calibri;font-size:24px;font-weight:bold;inline-size:1193.62;letter-spacing:0px;line-height:1;stroke-width:5;text-align:center;text-anchor:middle;white-space:pre" xml:space="preserve"><tspan x="739.04297" y="88.235291"><tspan style="font-weight:normal">1.414213562373095048801688724209698078569671875376948073176679737990732478462107038850387534327641</tspan></tspan><tspan x="739.04297" y="112.23529"><tspan style="font-weight:normal">57273501384623091229702492483605585073721264412149709993583141322266592750559275579995050115278206</tspan></tspan><tspan x="739.04297" y="136.23529"><tspan style="font-weight:normal">05714701095599716059702745345968620147285174186408891986095523292304843087143214508397626036279952</tspan></tspan><tspan x="739.04297" y="160.23529"><tspan style="font-weight:normal">51407989687253396546331808829640620615258352395054745750287759961729835575220337531857011354374603</tspan></tspan><tspan x="739.04297" y="184.23529"><tspan style="font-weight:normal">40849884716038689997069900481503054402779031645424782306849293691862158057846311159666871301301561</tspan></tspan><tspan x="739.04297" y="208.23529"><tspan style="font-weight:normal">85689872372352885092648612494977154218334204285686060146824720771435854874155657069677653720226485</tspan></tspan><tspan x="739.04297" y="232.23529"><tspan style="font-weight:normal">44701585880162075847492265722600208558446652145839889394437092659180031138824646815708263010059485</tspan></tspan><tspan x="739.04297" y="256.23529"><tspan style="font-weight:normal">87040031864803421948972782906410450726368813137398552561173220402450912277002269411275736272804957</tspan></tspan><tspan x="739.04297" y="280.23529"><tspan style="font-weight:normal">38108967504018369868368450725799364729060762996941380475654823728997180326802474420629269124859052</tspan></tspan><tspan x="739.04297" y="304.23529"><tspan style="font-weight:normal">18100445984215059112024944134172853147810580360337107730918286931471017111168391658172688941975871</tspan></tspan><tspan x="739.04297" y="328.23529"><tspan style="font-weight:normal">65821521282295184884720896946338628915628827659526351405422676532396946175112916024087155101351504</tspan></tspan><tspan x="739.04297" y="352.23529"><tspan style="font-weight:normal">55381287560052631468017127402653969470240300517495318862925631385188163478001569369176881852378684</tspan></tspan><tspan x="739.04297" y="376.23529"><tspan style="font-weight:normal">05228783762938921430065586956868596459515550164472450983689603688732311438941557665104088391429233</tspan></tspan><tspan x="739.04297" y="400.23529"><tspan style="font-weight:normal">81132060524336294853170499157717562285497414389991880217624309652065642118273167262575395947172559</tspan></tspan><tspan x="739.04297" y="424.23529"><tspan style="font-weight:normal">34637238632261482742622208671155839599926521176252698917540988159348640083457085181472231814204070</tspan></tspan><tspan x="739.04297" y="448.23529"><tspan style="font-weight:normal">42650905653233339843645786579679651926729239987536661721598257886026336361782749599421940377775368</tspan></tspan><tspan x="739.04297" y="472.23529"><tspan style="font-weight:normal">14262177387991945513972312740668983299898953867288228563786977496625199665835257761989393228453447</tspan></tspan><tspan x="739.04297" y="496.23529"><tspan style="font-weight:normal">35694794962952168891485492538904755828834526096524096542889394538646625744927556381964410316979833</tspan></tspan><tspan x="739.04297" y="520.23529"><tspan style="font-weight:normal">06185201937938494005715633372054806854057586799967012137223947582142630658513221740883238294728761</tspan></tspan><tspan x="739.04297" y="544.23529"><tspan style="font-weight:normal">73936474678374319600015921888073478576172522118674904249773669292073110963697216089337086611567345</tspan></tspan><tspan x="739.04297" y="568.23529"><tspan style="font-weight:normal">85334833295254675851644710757848602463600834449114818587655554286455123314219926311332517970608436</tspan></tspan><tspan x="739.04297" y="592.23529"><tspan style="font-weight:normal">55970435285641008791850076036100915946567067688360557174007675690509613671940132493560524018599910</tspan></tspan><tspan x="739.04297" y="616.23529"><tspan style="font-weight:normal">50621081635977264313806054670102935699710424251057817495310572559349844511269227803449135066375687</tspan></tspan><tspan x="739.04297" y="640.23529"><tspan style="font-weight:normal">47760283162829605532422426957534529028838768446429173282770888318087025339852338122749990812371892</tspan></tspan><tspan x="739.04297" y="664.23529"><tspan style="font-weight:normal">54072647536785030482159180188616710897286922920119759988070381854333253646021108229927929307287178</tspan></tspan><tspan x="739.04297" y="688.23529"><tspan style="font-weight:normal">07998880991767417741089830608003263118164279882311715436386966170299993416161487868601804550555398</tspan></tspan><tspan x="739.04297" y="712.23529"><tspan style="font-weight:normal">69131151860103863753250045581860448040750241195184305674533683613674597374423988553285179308960373</tspan></tspan><tspan x="739.04297" y="736.23529"><tspan style="font-weight:normal">89891517319587413442881784212502191695187559344438739618931454999990610758704909026088351763622474</tspan></tspan><tspan x="739.04297" y="760.23529"><tspan style="font-weight:normal">97578588583680374579311573398020999866221869499225959132764236194105921003280261498745665996888740</tspan></tspan><tspan x="739.04297" y="784.23529"><tspan style="font-weight:normal">67956167391859572888642473463585886864496822386006983352642799056283165613913942557649062065186021</tspan></tspan><tspan x="739.04297" y="808.23529"><tspan style="font-weight:normal">64726303336297507569787060660685649816009271870929215313236828135698893709741650447459096053747279</tspan></tspan><tspan x="739.04297" y="832.23529"><tspan style="font-weight:normal">65244770940992412387106144705439867436473384774548191008728862221495895295911878921491798339810837</tspan></tspan><tspan x="739.04297" y="856.23529"><tspan style="font-weight:normal">88278153065562315810360648675873036014502273208829351341387227684176678436905294286984908384557445</tspan></tspan><tspan x="739.04297" y="880.23529"><tspan style="font-weight:normal">79409598626074249954916802853077398938296036213353987532050919989360751390644449576845699347127636</tspan></tspan><tspan x="739.04297" y="904.23529"><tspan style="font-weight:normal">45071632791547015977335486389394232572775400382602747856741725809514163071595978498180094435603793</tspan></tspan><tspan x="739.04297" y="928.23529"><tspan style="font-weight:normal">90985590168272154034581581521004936662953448827107292396602321638238266612626830502572781169451035</tspan></tspan><tspan x="739.04297" y="952.23529"><tspan style="font-weight:normal">37937156882336593229782319298606467978986409208560955814261436363100461559433255047449397593399912</tspan></tspan><tspan x="739.04297" y="976.23529"><tspan style="font-weight:normal">54195323009321753044765339647066276116617535187546462096763455873861648801988484974792640450654448</tspan></tspan><tspan x="739.04297" y="1000.2353"><tspan style="font-weight:normal">96910040794211816925796857563784881498986416854994916357614484047021033989215342377037233353115645</tspan></tspan><tspan x="739.04297" y="1024.2353"><tspan style="font-weight:normal">94438970365316672194904935188290580630740134686264167247011065346349391640714628556798017793381442</tspan></tspan><tspan x="739.04297" y="1048.2354"><tspan style="font-weight:normal">4045269137066609777638784866238003392324370474115331872531906019165996455381157888</tspan></tspan></text>
  <path d="m646.05 177.93-239.96 496.87-99.908-221.23c-4.4588-8.9204-7.1358-8.9198-8.9198-8.9198 0 0-3.5682-1e-3 -9.8122 4.4588l-53.524 41.035c-7.1363 6.244-7.1369 7.1358-7.1369 8.9198 0 3.5682 0.89062 6.244 5.3551 6.244 3.5682 0 13.38-8.0281 19.625-12.488 2.6776-2.6776 11.595-8.921 17.84-13.381l112.4 246.2c3.5682 8.9204 6.2434 8.9216 11.596 8.9216 8.9204 0 10.705-2.6776 14.273-10.705l258.69-535.22c0.0331-0.0571 0.0257-0.0571 0.0571-0.17127h275.89v-21.814h-278.88c-9.9552 0.25415-13.906 4.2195-17.59 11.281z" style="fill:none;filter:url(#filter1);stroke-width:10;stroke:#87ded5"/>
  <path d="m736.09 643.75h182.98v45.346h-241.93v-45.346q49.881-52.548 87.225-92.826 37.344-40.278 51.481-56.816 26.674-32.542 36.01-52.548 9.336-20.272 9.336-41.345 0-33.343-19.739-52.281-19.472-18.939-53.615-18.939-24.274 0-50.948 8.8025-26.674 8.8025-56.549 26.674v-54.415q27.474-13.07 53.882-19.739 26.674-6.6685 52.548-6.6685 58.416 0 93.893 31.209 35.743 30.942 35.743 81.356 0 25.607-12.003 51.214-11.737 25.607-38.411 56.549-14.938 17.338-43.479 48.014-28.275 30.675-86.424 91.759z" style="fill:none;filter:url(#filter2);stroke-width:10;stroke:#87ded5" aria-label="2"/>
  <path d="m646.05 177.93-239.96 496.87-99.908-221.23c-4.4588-8.9204-7.1358-8.9198-8.9198-8.9198 0 0-3.5682-1e-3 -9.8122 4.4588l-53.524 41.035c-7.1363 6.244-7.1369 7.1358-7.1369 8.9198 0 3.5682 0.89062 6.244 5.3551 6.244 3.5682 0 13.38-8.0281 19.625-12.488 2.6776-2.6776 11.595-8.921 17.84-13.381l112.4 246.2c3.5682 8.9204 6.2434 8.9216 11.596 8.9216 8.9204 0 10.705-2.6776 14.273-10.705l258.69-535.22c0.0331-0.0571 0.0257-0.0571 0.0571-0.17127h275.89v-21.814h-278.88c-9.9552 0.25415-13.906 4.2195-17.59 11.281z" style="fill-opacity:.3;fill:#21786f;stroke-width:2;stroke:#34cbbd"/>
  <path d="m736.09 643.75h182.98v45.346h-241.93v-45.346q49.881-52.548 87.225-92.826 37.344-40.278 51.481-56.816 26.674-32.542 36.01-52.548 9.336-20.272 9.336-41.345 0-33.343-19.739-52.281-19.472-18.939-53.615-18.939-24.274 0-50.948 8.8025-26.674 8.8025-56.549 26.674v-54.415q27.474-13.07 53.882-19.739 26.674-6.6685 52.548-6.6685 58.416 0 93.893 31.209 35.743 30.942 35.743 81.356 0 25.607-12.003 51.214-11.737 25.607-38.411 56.549-14.938 17.338-43.479 48.014-28.275 30.675-86.424 91.759z" style="fill-opacity:.3;fill:#22776e;stroke-width:2;stroke:#38c6ba" aria-label="2"/>
</svg>
